<svg width="126" height="21" viewBox="0 0 126 21" fill="none" xmlns="http://www.w3.org/2000/svg">
<path d="M16.1721 12.9883C16.1721 13.243 15.9655 13.4505 15.7116 13.4505H3.67459V9.29451C3.67459 9.0396 3.88113 8.83231 4.13487 8.83231H15.7116C15.9655 8.83231 16.1721 9.0396 16.1721 9.29451V12.9883ZM1.49741 16.1979C1.30452 16.1979 1.14767 16.0407 1.14767 15.8471V12.1209C1.14767 11.9276 1.30452 11.7701 1.49741 11.7701H2.52715V16.1979H1.49741ZM18.3493 10.6182H17.3195V9.29451C17.3195 8.40447 16.5983 7.68039 15.7116 7.68039H10.4971V3.28207C10.4971 3.07949 10.3912 2.89219 10.2182 2.78798C10.0453 2.68399 9.83047 2.67905 9.6528 2.77427L8.57428 3.35281C8.2948 3.50261 8.18941 3.85162 8.33866 4.13213C8.48791 4.41219 8.83496 4.51887 9.11511 4.3684L9.34939 4.24286V7.68039H4.13487C3.24856 7.68039 2.52715 8.40447 2.52715 9.29451V10.6182H1.49741C0.671729 10.6182 0 11.2924 0 12.1209V15.8471C0 16.6756 0.671729 17.3498 1.49741 17.3498H2.52715V18.7582C2.52715 19.648 3.24856 20.3721 4.13487 20.3721H16.7458C17.0629 20.3721 17.3195 20.1142 17.3195 19.7962C17.3195 19.478 17.0629 19.2202 16.7458 19.2202H4.13487C3.88113 19.2202 3.67459 19.0129 3.67459 18.7582V14.6024H15.7116C16.5983 14.6024 17.3195 13.8783 17.3195 12.9883V11.7701H18.3493C18.5421 11.7701 18.699 11.9276 18.699 12.1209V15.8471C18.699 16.0407 18.5421 16.1979 18.3493 16.1979H16.7458C16.4287 16.1979 16.1721 16.4557 16.1721 16.774C16.1721 17.092 16.4287 17.3498 16.7458 17.3498H18.3493C19.1747 17.3498 19.8464 16.6756 19.8464 15.8471V12.1209C19.8464 11.2924 19.1747 10.6182 18.3493 10.6182Z" fill="#F95FA9"/>
<path d="M6.90216 6.56445C7.05812 6.56445 7.21341 6.50112 7.32664 6.37625C7.5401 6.14088 7.5231 5.7766 7.2886 5.56257C6.61821 4.95034 6.24923 4.14025 6.24923 3.28233C6.24923 2.42418 6.61821 1.61431 7.2886 1.00209C7.5231 0.787831 7.5401 0.42355 7.32664 0.188406C7.11339 -0.0469613 6.75023 -0.0642552 6.51618 0.150002C5.6039 0.983447 5.10156 2.09583 5.10156 3.28233C5.10156 4.46882 5.6039 5.58121 6.51618 6.41443C6.62604 6.51504 6.76433 6.56445 6.90216 6.56445Z" fill="#F95FA9"/>
<path d="M12.5196 6.37625C12.6328 6.50112 12.7881 6.56445 12.944 6.56445C13.0819 6.56445 13.2201 6.51504 13.3302 6.41443C14.2425 5.58121 14.7449 4.46882 14.7449 3.28233C14.7449 2.09583 14.2425 0.983448 13.3302 0.150228C13.0955 -0.0642538 12.7328 -0.0469604 12.5196 0.188407C12.3063 0.423551 12.3233 0.787832 12.5576 1.00209C13.228 1.61431 13.5974 2.42418 13.5974 3.28233C13.5974 4.14048 13.228 4.95034 12.5576 5.56257C12.3233 5.7766 12.3063 6.14088 12.5196 6.37625Z" fill="#F95FA9"/>
<path d="M8.34445 9.81521C8.02738 9.81521 7.77051 10.073 7.77051 10.3911V11.4689C7.77051 11.7871 8.02738 12.0449 8.34445 12.0449C8.6613 12.0449 8.91818 11.7871 8.91818 11.4689V10.3911C8.91818 10.073 8.6613 9.81521 8.34445 9.81521Z" fill="#F95FA9"/>
<path d="M11.5024 9.81521C11.1856 9.81521 10.9287 10.073 10.9287 10.3911V11.4689C10.9287 11.7871 11.1856 12.0449 11.5024 12.0449C11.8195 12.0449 12.0764 11.7871 12.0764 11.4689V10.3911C12.0764 10.073 11.8195 9.81521 11.5024 9.81521Z" fill="#F95FA9"/>
<path d="M9.92406 2.22461C10.3232 2.22461 10.6479 1.89873 10.6479 1.49807C10.6479 1.0974 10.3232 0.771527 9.92406 0.771527C9.52487 0.771527 9.2002 1.0974 9.2002 1.49807C9.2002 1.89873 9.52487 2.22461 9.92406 2.22461Z" fill="#F95FA9"/>
<path d="M27.7461 14.2841H33.6251V16.1571H27.7461V14.2841ZM24 20.8477V9.77622H34.0508V12.1521H26.3605V18.4718H34.0662V20.8477H24Z" fill="#F95FA9"/>
<path d="M37.7832 13.477V20.8476H35.5293V11.0403C35.5293 10.1725 35.9859 9.63929 36.7172 9.63929C37.0673 9.63929 37.3411 9.76078 37.6767 10.0804L44.9253 17.0403V9.66967H47.1942V19.5835C47.1942 20.4673 46.7073 21 46.0067 21C45.6413 21 45.352 20.8631 45.0324 20.5429L37.7832 13.477Z" fill="#F95FA9"/>
<path d="M54.0654 20.8477C50.9128 20.8477 48.5986 18.411 48.5986 15.1977C48.5986 11.9385 50.9128 9.77622 54.0654 9.77622H60.1719V12.1521H54.0654C52.2835 12.1521 50.9745 13.477 50.9745 15.3197C50.9745 17.1469 52.2685 18.4718 54.0654 18.4718H58.4816V16.1571H53.8065V14.2841H60.8575V20.8477H54.0654Z" fill="#F95FA9"/>
<path d="M62.5947 9.77622H64.9701V20.8477H62.5947V9.77622Z" fill="#F95FA9"/>
<path d="M69.0527 13.477V20.8476H66.7988V11.0403C66.7988 10.1725 67.2554 9.63929 67.9868 9.63929C68.3368 9.63929 68.6106 9.76078 68.9462 10.0804L76.1949 17.0403V9.66967H78.4637V19.5835C78.4637 20.4673 77.9768 21 77.2763 21C76.9108 21 76.6216 20.8631 76.3019 20.5429L69.0527 13.477Z" fill="#F95FA9"/>
<path d="M83.9321 14.2841H89.8111V16.1571H83.9321V14.2841ZM80.1865 20.8477V9.77622H90.2368V12.1521H82.5465V18.4718H90.2522V20.8477H80.1865Z" fill="#F95FA9"/>
<path d="M95.5068 14.2841H101.386V16.1571H95.5068V14.2841ZM91.7607 20.8477V9.77622H101.811V12.1521H94.1212V18.4718H101.827V20.8477H91.7607Z" fill="#F95FA9"/>
<path d="M113.22 20.8477L110.525 17.8325H107.083V15.8071H111.377C112.535 15.8071 113.175 15.1215 113.175 13.949C113.175 12.776 112.504 12.1521 111.377 12.1521H105.697V20.8477H103.337V9.77622H111.377C113.967 9.77622 115.504 11.3754 115.504 13.8877C115.504 15.7 114.652 16.9647 113.266 17.5128L116.586 20.8477H113.22Z" fill="#F95FA9"/>
<path d="M122.95 18.6241V13.6144C122.95 11.2081 121.625 9.77672 119.265 9.77672H118.214V12.1521H119.265C120.133 12.1521 120.59 12.6545 120.59 13.6144V18.6241H118.096V20.8477H120.59H122.95H125.568V18.6241H122.95Z" fill="#F95FA9"/>
</svg>
